<svg xmlns="http://www.w3.org/2000/svg" width="24" height="24" viewBox="0 0 24 24" version="1.1" xmlns:xlink="http://www.w3.org/1999/xlink" class="d7e-0f24ac">
    <path style="fill: white" d="M9 2a2 2 0 012 2v5a2 2 0 01-2 2H4a2 2 0 01-2-2V4a2 2 0 012-2h5zm0 2H4v5h5V4zm11-2a2 2 0 012 2v5a2 2 0 01-2 2h-5a2 2 0 01-2-2V4a2 2 0 012-2h5zm0 2h-5v5h5V4zM9 13a2 2 0 012 2v5a2 2 0 01-2 2H4a2 2 0 01-2-2v-5a2 2 0 012-2h5zm0 2H4v5h5v-5zm8.5-2a4.5 4.5 0 110 9 4.5 4.5 0 010-9zm0 2a2.5 2.5 0 000 5 2.5 2.5 0 000-5z" fill="#6F787E" fill-rule="nonzero"></path>
</svg>